# AST/ASF file generated using VICON BodyLanguage
# -----------------------------------------------
:version 1.10
:name VICON
:units
  mass 1.0
  length 0.45
  angle deg
:documentation
   .ast/.asf automatically generated from VICON data using
   VICON BodyBuilder and BodyLanguage model FoxedUp or BRILLIANT.MOD
:root
   order TX TY TZ RX RY RZ
   axis XYZ
   position 0 0 0  
   orientation 0 0 0 
:bonedata
  begin
     id 1 
     name lhipjoint
     direction 0.707368 -0.647095 0.284426 
     length 2.60678 
     axis 0 0 0  XYZ
  end
  begin
     id 2 
     name lfemur
     direction 0.34202 -0.939693 0  
     length 6.63812  
     axis 0 0 20  XYZ
    dof rx ry rz
    limits (-160.0 20.0)
           (-70.0 70.0)
           (-60.0 70.0)
  end
  begin
     id 3 
     name ltibia
     direction 0.34202 -0.939693 0   
     length 7.51178   
     axis 0 0 20   XYZ
    dof rx
    limits (-10.0 170.0)
  end
  begin
     id 4 
     name lfoot
     direction 0.121251 -0.333133 0.935051   
     length 1.83716   
     axis -90 7.62852e-016 20   XYZ
    dof rx rz
    limits (-45.0 90.0)
           (-70.0 20.0)
  end
  begin
     id 5 
     name ltoes
     direction 1.53611e-011 -4.21962e-011 1   
     length 0.916133   
     axis -90 7.62852e-016 20   XYZ
    dof rx
    limits (-90.0 20.0)
  end
  begin
     id 6 
     name rhipjoint
     direction -0.692419 -0.660507 0.290321   
     length 2.55385  
     axis 0 0 0  XYZ 
  end
  begin
     id 7 
     name rfemur
     direction -0.34202 -0.939693 0   
     length 7.29079   
     axis 0 0 -20   XYZ
    dof rx ry rz
    limits (-160.0 20.0)
           (-70.0 70.0)
           (-70.0 60.0)
  end
  begin
     id 8 
     name rtibia
     direction -0.34202 -0.939693 0   
     length 7.47143   
     axis 0 0 -20   XYZ
    dof rx
    limits (-10.0 170.0)
 end
 begin
     id 9 
     name rfoot
     direction -0.119907 -0.329441 0.936532   
     length 1.79439  
     axis -90 -7.62852e-016 -20   XYZ
    dof rx rz
    limits (-45.0 90.0)
           (-20.0 70.0)
  end
  begin
     id 10 
     name rtoes
     direction -1.53571e-011 -4.21961e-011 1   
     length 0.896039   
     axis -90 -7.62852e-016 -20   XYZ
    dof rx
    limits (-90.0 20.0)
  end
  begin
     id 11 
     name lowerback
     direction 0.0367721 0.992912 -0.113016   
     length 1.73542   
     axis 0 0 0   XYZ
    dof rx ry rz
    limits (-20.0 45.0)
           (-30.0 30.0)
           (-30.0 30.0)
  end
  begin
     id 12 
     name upperback
     direction -0.000314626 0.990678 0.136227   
     length 1.7514   
     axis 0 0 0   XYZ
    dof rx ry rz
    limits (-20.0 45.0)
           (-30.0 30.0)
           (-30.0 30.0)
  end
  begin
     id 13 
     name thorax
     direction -0.0226159 0.981151 0.191917   
     length 1.71471   
     axis 0 0 0   XYZ
    dof rx ry rz
    limits (-20.0 45.0)
           (-30.0 30.0)
           (-30.0 30.0)
  end
  begin
     id 14 
     name lowerneck
     direction 0.0219333 0.998071 0.0580739   
     length 1.65882   
     axis 0 0 0   XYZ
    dof rx ry rz
    limits (-20.0 45.0)
           (-30.0 30.0)
           (-30.0 30.0)
  end
  begin
     id 15 
     name upperneck
     direction 0.0384529 0.980058 -0.194957   
     length 1.6612   
     axis 0 0 0   XYZ
    dof rx ry rz
    limits (-20.0 45.0)
           (-30.0 30.0)
           (-30.0 30.0)
  end
  begin
     id 16
     name head
     direction 0.00592123 0.997421 -0.0715234  
     length 1.68077  
     axis 0 0 0   XYZ
    dof rx ry rz
    limits (-20.0 45.0)
           (-30.0 30.0)
           (-30.0 30.0)
  end
  begin
     id 17 
     name lclavicle
     direction 0.904803 0.417826 0.0821728  
     length 3.42227  
     axis 0 0 0   XYZ
    dof ry rz
    limits (-20.0 10.0)
           (0.0 20.0)
  end
  begin
     id 18 
     name lhumerus
     direction 1 -4.48965e-011 -2.68786e-027   
     length 5.11878   
     axis -180 -30 -90   XYZ
    dof rx ry rz
    limits (-60.0 90.0)
           (-90.0 90.0)
           (-90.0 90.0)
  end
  begin
     id 19
     name lradius
     direction 1 -4.48965e-011 2.61168e-028   
     length 3.59971   
     axis -180 -30 -90   XYZ
    dof rx
    limits (-10.0 170.0)
  end
  begin
     id 20
     name lwrist
     direction 1 -4.48965e-011 1.58672e-027   
     length 1.79985   
     axis -1.65735e-015 90 90   XYZ
    dof ry
    limits (-180.0 0.0)
 end
  begin
     id 21 
     name lhand
     direction 1 -4.48942e-011 3.17344e-027   
     length 0.62877   
     axis -2.02492e-015 90 90   XYZ
    dof rx rz
    limits (-90.0 90.0)
           (-45.0 45.0)
  end
  begin
     id 22 
     name lfingers
     direction 1 -4.49011e-011 6.34687e-027   
     length 0.506931   
     axis -4.04985e-015 90 90   XYZ
    dof rx
    limits (0.0 90.0)
  end
  begin
     id 23
     name lthumb
     direction 0.707107 -6.34982e-011 0.707107   
     length 0.727854   
     axis -90 45 2.85299e-015   XYZ
    dof rx rz
    limits (-45.0 45.0)
           (-45.0 45.0)
  end
  begin
     id 24 
     name rclavicle
     direction -0.945647 0.32488 0.0143075   
     length 3.52737  
     axis 0 0 0   XYZ 
    dof ry rz
    limits (-10.0 20.0)
           (-20.0 0.0)
  end
  begin
     id 25 
     name rhumerus
     direction -1 -4.48962e-011 1.92182e-027  
     length 5.4902   
     axis -180 30 90   XYZ
    dof rx ry rz
    limits (-90.0 60.0)
           (-90.0 90.0)
           (-90.0 90.0)
  end
  begin
     id 26 
     name rradius
     direction -1 -4.48967e-011 -5.97193e-028   
     length 3.20659   
     axis -180 30 90   XYZ
    dof rx
    limits (-10.0 170.0)
  end
  begin
     id 27 
     name rwrist
     direction -1 -4.48964e-011 1.58672e-027   
     length 1.6033   
     axis -1.65735e-015 -90 -90   XYZ
    dof ry
    limits (-180.0 0.0)
  end
  begin
     id 28
     name rhand
     direction -1 -4.49006e-011 3.17344e-027   
     length 0.691885   
     axis -2.02492e-015 -90 -90   XYZ
    dof rx rz
    limits (-90.0 90.0)
           (-45.0 45.0)
  end
  begin
     id 29
     name rfingers
     direction -1 -4.48908e-011 6.34687e-027   
     length 0.557815   
     axis -4.04985e-015 -90 -90   XYZ
    dof rx
    limits (0.0 90.0)
  end
  begin
     id 30
     name rthumb
     direction -0.707107 -6.34999e-011 0.707107   
     length 0.800915   
     axis -90 -45 -2.85299e-015   XYZ
    dof rx rz
    limits (-45.0 45.0)
           (-45.0 45.0)
  end
:hierarchy
  begin
    root lhipjoint rhipjoint lowerback
    lhipjoint lfemur
    lfemur ltibia
    ltibia lfoot
    lfoot ltoes
    rhipjoint rfemur
    rfemur rtibia
    rtibia rfoot
    rfoot rtoes
    lowerback upperback
    upperback thorax
    thorax lowerneck lclavicle rclavicle
    lowerneck upperneck
    upperneck head
    lclavicle lhumerus
    lhumerus lradius
    lradius lwrist
    lwrist lhand lthumb
    lhand lfingers
    rclavicle rhumerus
    rhumerus rradius
    rradius rwrist
    rwrist rhand rthumb
    rhand rfingers
  end

#!OML:ASF I:\Actors\actors\Patient Classification 1\Patient 1\Session 1\Subject1.ASF
:FULLY-SPECIFIED
:DEGREES
337
root 0.734598 17.5819 8.39078 19.3317 0.948383 -8.35346
lowerback 16.0852 0.558995 5.76581
upperback -4.96112 2.26523 1.72095
thorax -14.5684 0.622072 -1.96339
lowerneck -21.3542 -4.71391 -2.07439
upperneck 16.8184 -7.71862 8.60548
head 9.26045 -2.77949 2.20611
rclavicle 1.49089e-014 -7.95139e-016
rhumerus 58.0216 0.383007 -58.1001
rradius 56.1457
rwrist -17.0665
rhand 10.6624 -39.3336
rfingers 7.12502
rthumb 35.7544 -65.7101
lclavicle 1.49089e-014 -7.95139e-016
lhumerus 56.1426 2.30501 63.4306
lradius 52.7977
lwrist 40.2813
lhand -16.816 -9.27312
lfingers 7.12502
lthumb 9.41292 20.4967
rfemur -25.194 15.7628 19.2783
rtibia 14.5451
rfoot -12.333 -20.5352
rtoes 0.433593
lfemur -21.4521 -21.8636 0.912344
ltibia 6.40864
lfoot -8.44427 32.2842
ltoes -7.37585
338
root 0.734537 17.5824 8.38525 19.4059 0.946444 -8.36796
lowerback 16.2971 0.596308 5.81982
upperback -5.05654 2.34428 1.67541
thorax -14.8039 0.641201 -2.07259
lowerneck -20.9809 -4.72316 -2.12601
upperneck 16.7454 -7.73168 8.70973
head 9.17713 -2.79061 2.25324
rclavicle 3.97569e-016 2.32578e-014
rhumerus 56.942 0.563435 -58.2086
rradius 56.5315
rwrist -16.7741
rhand 10.6157 -39.1162
rfingers 7.12502
rthumb 35.71 -65.5034
lclavicle 3.97569e-016 2.32578e-014
lhumerus 55.0381 2.02314 63.624
lradius 53.7284
lwrist 41.1479
lhand -16.1308 -9.14127
lfingers 7.12502
lthumb 10.074 20.5976
rfemur -25.2813 15.7598 19.2674
rtibia 14.5013
rfoot -12.2481 -20.5392
rtoes 0.416087
lfemur -21.5745 -21.9387 1.01346
ltibia 6.41417
lfoot -8.51252 32.377
ltoes -7.07828
339
root 0.734715 17.5838 8.3795 19.4184 0.939333 -8.36406
lowerback 16.5768 0.566038 5.82323
upperback -5.14596 2.33122 1.66709
thorax -15.0855 0.623363 -2.08722
lowerneck -20.9559 -4.70307 -2.13398
upperneck 17.0274 -7.73126 8.721
head 9.27144 -2.78082 2.2601
rclavicle 5.2181e-015 3.8763e-014
rhumerus 55.8428 1.0381 -58.3686
rradius 56.8832
rwrist -15.999
rhand 10.6627 -39.0509
rfingers 7.12502
rthumb 35.7546 -65.4273
lclavicle 5.2181e-015 3.8763e-014
lhumerus 53.8036 1.82968 63.6162
lradius 54.3134
lwrist 41.1112
lhand -15.7123 -9.20521
lfingers 7.12502
lthumb 10.4777 20.5137
rfemur -25.3108 15.7881 19.2457
rtibia 14.4736
rfoot -12.1893 -20.57
rtoes 0.328405
lfemur -21.631 -21.9059 1.0271
ltibia 6.44273
lfoot -8.43835 32.3606
ltoes -7.0994
340
root 0.735968 17.585 8.37368 19.397 0.922425 -8.32986
lowerback 16.8742 0.520578 5.83424
upperback -5.23064 2.29439 1.61654
thorax -15.3729 0.590912 -2.1475
lowerneck -21.0467 -4.7015 -2.03651
upperneck 17.3744 -7.78934 8.7038
head 9.40774 -2.78861 2.23007
rclavicle 3.52843e-015 5.96354e-015
rhumerus 54.6014 1.58105 -58.6668
rradius 57.1365
rwrist -15.6335
rhand 10.7326 -38.9483
rfingers 7.12502
rthumb 35.8209 -65.3086
lclavicle 3.52843e-015 5.96354e-015
lhumerus 52.5977 1.53559 63.4611
lradius 54.4353
lwrist 40.1237
lhand -15.5962 -9.57776
lfingers 7.12502
lthumb 10.5897 20.1354
rfemur -25.3066 15.7987 19.2016
rtibia 14.4629
rfoot -12.1388 -20.5814
rtoes 0.272909
lfemur -21.6526 -21.8506 0.960851
ltibia 6.50193
lfoot -8.362 32.3061
ltoes -7.18986
341
root 0.737752 17.5841 8.37042 19.3792 0.857121 -8.24363
lowerback 16.7289 0.520425 5.78145
upperback -5.06708 2.24983 1.54401
thorax -15.0861 0.582814 -2.18344
lowerneck -21.1173 -4.71076 -2.006
upperneck 17.3636 -7.84598 8.85547
head 9.42723 -2.79395 2.26813
rclavicle 3.8266e-015 2.66371e-014
rhumerus 53.5223 1.98796 -58.8882
rradius 57.4167
rwrist -15.6006
rhand 10.5652 -38.8719
rfingers 7.12502
rthumb 35.6623 -65.2707
lclavicle 3.8266e-015 2.66371e-014
lhumerus 51.7544 1.3286 63.4461
lradius 54.3875
lwrist 39.4816
lhand -15.2525 -9.7138
lfingers 7.12502
lthumb 10.9212 19.9822
rfemur -25.3018 15.769 19.095
rtibia 14.4589
rfoot -12.1167 -20.5186
rtoes 0.299529
lfemur -21.6364 -21.8519 0.814183
ltibia 6.53992
lfoot -8.3774 32.3222
ltoes -7.21829
342
root 0.737529 17.5814 8.36356 19.2515 0.606946 -7.92674
lowerback 16.5574 0.600575 5.38575
upperback -4.76751 2.22002 1.41962
thorax -14.6268 0.617053 -2.08749
lowerneck -21.2011 -4.75057 -2.12613
upperneck 17.2383 -7.91115 9.11423
head 9.421 -2.80503 2.36578
rclavicle 2.48481e-015 2.78299e-014
rhumerus 52.5067 2.44377 -58.8765
rradius 57.6642
rwrist -15.5275
rhand 10.0038 -38.8792
rfingers 7.12502
rthumb 35.1299 -65.4049
lclavicle 2.48481e-015 2.78299e-014
lhumerus 50.9576 1.13667 63.4641
lradius 54.4846
lwrist 39.6613
lhand -14.607 -9.6568
lfingers 7.12502
lthumb 11.5438 20.0053
rfemur -25.261 15.7906 18.6927
rtibia 14.5345
rfoot -12.11 -20.4286
rtoes 0.256938
lfemur -21.4297 -21.9873 0.332763
ltibia 6.52038
lfoot -8.37557 32.5177
ltoes -7.31625
343
root 0.735489 17.5769 8.34682 18.9258 0.0453406 -7.21769
lowerback 16.9222 0.777152 4.43224
upperback -4.5599 2.22314 1.18247
thorax -14.6182 0.692269 -1.82594
lowerneck -21.2684 -4.79995 -2.19898
upperneck 17.2622 -7.9917 9.25392
head 9.45693 -2.82864 2.41321
rclavicle 3.8763e-015 1.64991e-014
rhumerus 51.2782 3.03641 -58.961
rradius 57.7643
rwrist -15.2779
rhand 9.56658 -38.7607
rfingers 7.12502
rthumb 34.7151 -65.3828
lclavicle 3.8763e-015 1.64991e-014
lhumerus 49.9318 0.796743 63.4902
lradius 54.5902
lwrist 39.7596
lhand -14.1238 -9.83404
lfingers 7.12502
lthumb 12.0098 19.8014
rfemur -25.1752 15.9332 17.7791
rtibia 14.7432
rfoot -12.0847 -20.3456
rtoes 0.165705
lfemur -20.9356 -22.372 -0.693259
ltibia 6.44736
lfoot -8.53492 33.0069
ltoes -6.8766
344
root 0.73291 17.5733 8.34699 18.841 0.0238228 -7.28164
lowerback 16.9311 0.779236 4.43944
upperback -4.488 2.22581 1.19091
thorax -14.5379 0.696306 -1.82095
lowerneck -21.2275 -4.82429 -2.24952
upperneck 17.2664 -8.0218 9.30466
head 9.45773 -2.84146 2.43507
rclavicle -1.70955e-014 -1.94809e-014
rhumerus 49.9358 3.72359 -59.2196
rradius 57.6998
rwrist -15.1036
rhand 9.61634 -38.6016
rfingers 7.12502
rthumb 34.7624 -65.2128
lclavicle -1.70955e-014 -1.94809e-014
lhumerus 48.7074 0.355849 63.4946
lradius 54.6699
lwrist 39.3802
lhand -13.9943 -9.67258
lfingers 7.12502
lthumb 12.1346 19.9555
rfemur -25.087 15.9637 17.8859
rtibia 14.7504
rfoot -12.0931 -20.3266
rtoes 0.259671
lfemur -20.8028 -22.3223 -0.663216
ltibia 6.41713
lfoot -8.62191 32.9787
ltoes -6.64878
345
root 0.730968 17.5738 8.36058 19.0755 0.517558 -8.13645
lowerback 16.4376 0.627579 5.42449
upperback -4.48881 2.24367 1.44319
thorax -14.2196 0.642534 -2.0852
lowerneck -21.2144 -4.85415 -2.31816
upperneck 17.2195 -8.03244 9.2855
head 9.44108 -2.85538 2.43785
rclavicle 5.76476e-015 -1.43125e-014
rhumerus 48.6148 4.46172 -59.5314
rradius 57.5802
rwrist -15.249
rhand 9.65869 -38.6301
rfingers 7.12502
rthumb 34.8025 -65.232
lclavicle 5.76476e-015 -1.43125e-014
lhumerus 47.4197 -0.0712408 63.5177
lradius 54.8059
lwrist 39.1559
lhand -13.8972 -9.27308
lfingers 7.12502
lthumb 12.2283 20.3495
rfemur -25.1335 15.9062 18.9838
rtibia 14.6242
rfoot -12.1691 -20.364
rtoes 0.641351
lfemur -21.1548 -21.8019 0.489537
ltibia 6.47093
lfoot -8.47592 32.4598
ltoes -7.11847
346
root 0.730724 17.5732 8.36556 19.1616 0.661728 -8.4188
lowerback 16.2226 0.588059 5.74494
upperback -4.4426 2.25324 1.52844
thorax -14.028 0.631117 -2.16705
lowerneck -21.3047 -4.83833 -2.20273
upperneck 17.1858 -8.00264 9.11077
head 9.42951 -2.85192 2.36149
rclavicle -1.97791e-014 7.7526e-015
rhumerus 47.3873 5.1291 -59.926
rradius 57.5554
rwrist -15.5673
rhand 9.61331 -38.9277
rfingers 7.12502
rthumb 34.7595 -65.5396
lclavicle -1.97791e-014 7.7526e-015
lhumerus 46.1313 -0.480648 63.4054
lradius 54.9849
lwrist 39.771
lhand -13.7045 -9.18385
lfingers 7.12502
lthumb 12.414 20.4275
rfemur -25.1627 15.8428 19.3551
rtibia 14.6001
rfoot -12.1542 -20.3454
rtoes 0.64324
lfemur -21.2697 -21.6401 0.873402
ltibia 6.47437
lfoot -8.37243 32.3103
ltoes -7.35081
347
root 0.731833 17.5727 8.36585 19.1543 0.638399 -8.41959
lowerback 16.2157 0.607001 5.75602
upperback -4.36794 2.27864 1.54679
thorax -13.9341 0.647085 -2.15919
lowerneck -21.3602 -4.75537 -1.95716
upperneck 17.0268 -7.88954 8.85457
head 9.35377 -2.81574 2.24831
rclavicle -1.19271e-015 1.05356e-014
rhumerus 46.3659 5.68615 -60.2714
rradius 57.5572
rwrist -15.834
rhand 9.77873 -39.4364
rfingers 7.12502
rthumb 34.9164 -66.012
lclavicle -1.19271e-015 1.05356e-014
lhumerus 44.9069 -0.938242 63.1815
lradius 55.172
lwrist 40.9017
lhand -13.6818 -9.15704
lfingers 7.12502
lthumb 12.4359 20.453
rfemur -25.1482 15.7559 19.3851
rtibia 14.5963
rfoot -12.005 -20.3105
rtoes 0.0794918
lfemur -21.2445 -21.6433 0.863714
ltibia 6.45167
lfoot -8.33079 32.339
ltoes -7.3348
348
root 0.734733 17.573 8.36546 19.1674 0.612928 -8.3885
lowerback 16.2318 0.635825 5.75414
upperback -4.28977 2.31669 1.56982
thorax -13.8497 0.669977 -2.14279
lowerneck -21.4694 -4.72228 -1.90787
upperneck 16.813 -7.81343 8.74614
head 9.28637 -2.79358 2.21184
rclavicle -2.28602e-015 -3.83654e-014
rhumerus 45.4875 6.12392 -60.5863
rradius 57.5861
rwrist -15.7818
rhand 10.0425 -39.9365
rfingers 7.12502
rthumb 35.1667 -66.4535
lclavicle -2.28602e-015 -3.83654e-014
lhumerus 43.9745 -1.33563 63.3296
lradius 55.1955
lwrist 41.4292
lhand -13.5937 -8.92574
lfingers 7.12502
lthumb 12.5209 20.6791
rfemur -25.1633 15.6962 19.351
rtibia 14.5927
rfoot -11.9032 -20.2746
rtoes -0.273038
lfemur -21.2509 -21.6192 0.808015
ltibia 6.45323
lfoot -8.34766 32.3456
ltoes -7.21874
349
root 0.738236 17.5736 8.3647 19.2062 0.561217 -8.36292
lowerback 16.2277 0.670463 5.75558
upperback -4.21863 2.36049 1.58107
thorax -13.7604 0.694672 -2.14251
lowerneck -21.639 -4.74632 -1.97594
upperneck 16.6818 -7.81472 8.75504
head 9.27367 -2.79726 2.22296
rclavicle -1.75924e-014 3.18055e-014
rhumerus 45.0147 6.57689 -60.5002
rradius 57.3375
rwrist -15.8386
rhand 9.72902 -39.9784
rfingers 7.12502
rthumb 34.8693 -66.5649
lclavicle -1.75924e-014 3.18055e-014
lhumerus 43.2224 -1.68848 63.5829
lradius 55.1374
lwrist 41.2108
lhand -13.5724 -8.6104
lfingers 7.12502
lthumb 12.5414 20.9932
rfemur -25.2143 15.7394 19.2812
rtibia 14.5977
rfoot -11.9321 -20.2595
rtoes -0.147889
lfemur -21.2692 -21.593 0.75864
ltibia 6.44567
lfoot -8.35444 32.3733
ltoes -7.1695
